# xmcd CD database file
#
# Track frame offsets:
#	150
#	12747
#	21442
#	36422
#	48862
#	61590
#	71002
#	86850
#	97525
#	108692
#	118652
#	128162
#	144295
#	158207
#	175292
#	190660
#	208932
#	220677
#	232370
#	243595
#	254422
#	265575
#	276045
#	291715
#	299910
#	312957
#	321052
#
# Disc length: 4461 seconds
#
# Revision: 0
# Processed by: cddbd v1.5.2PL0 Copyright (c) Steve Scherf et al.
# Submitted via: CDex 1.51
#
DISCID=a8116b1b
DTITLE=Sonoton Authentic Series - SAS 056 - Authentic  Italy
DYEAR=1995
DGENRE=Contentum
TTITLE0=Campania (Napoli - Sorrento - Capri) - Santa Lucia
TTITLE1=Campania (Napoli - Sorrento - Capri) - Mare di Capri
TTITLE2=Campania (Napoli - Sorrento - Capri) - Te voglio bene assaje
TTITLE3=Campania (Napoli - Sorrento - Capri) - Funiculi' funicula'
TTITLE4=Campania (Napoli - Sorrento - Capri) - Luna Sorrentina
TTITLE5=Campania (Napoli - Sorrento - Capri) - Tarantella Napoletana
TTITLE6=Campania (Napoli - Sorrento - Capri) - Fenesta che lucive
TTITLE7=Lazio - Roma - Romanina de trastevere
TTITLE8=Lazio - Roma - Aria de Roma
TTITLE9=Lazio - Roma - Carrozzella Romana
TTITLE10=Lazio - Roma - Trasteverina
TTITLE11=Toscana - Firenza - Serenata fiorentina
TTITLE12=Toscana - Firenza - Gita sull'arno
TTITLE13=Toscana - Firenza - Ninna nanna fiorentina
TTITLE14=Venezia -  La biondina in gondoleta
TTITLE15=Venezia -  Laguna veneziana
TTITLE16=Venezia -  Luna veneziana
TTITLE17=Italian mountains - Dormi, mi Bella. dormi
TTITLE18=Calabria - Calabrisella
TTITLE19=Piemonte - La Monferrina
TTITLE20=Piemonte - Le 'd Carmagnola
TTITLE21=Sicilia - Tarantella siciliana
TTITLE22=Sicilia - Agrigento in fiore
TTITLE23=Sicilia - Cafalu'
TTITLE24=Sicilia - Mi votu e mi rivotu suspirannu
TTITLE25=Sicilia - Festa Siciliana
TTITLE26=Sicilia - Ciuri ciuri
EXTD=YEAR: 1995
EXTT0=
EXTT1=
EXTT2=
EXTT3=
EXTT4=
EXTT5=
EXTT6=
EXTT7=
EXTT8=
EXTT9=
EXTT10=
EXTT11=
EXTT12=
EXTT13=
EXTT14=
EXTT15=
EXTT16=
EXTT17=
EXTT18=
EXTT19=
EXTT20=
EXTT21=
EXTT22=
EXTT23=
EXTT24=
EXTT25=
EXTT26=
PLAYORDER=
